<svg width="16" height="16" viewBox="0 0 16 16" fill="none" xmlns="http://www.w3.org/2000/svg">
<rect width="16" height="16" rx="2" fill="black" style="fill:black;fill-opacity:1;"/>
<path fill-rule="evenodd" clip-rule="evenodd" d="M7.70788 4.80376H6.84608C6.37012 4.80376 5.98428 5.1896 5.98428 5.66556C5.98428 6.14152 6.37012 6.52736 6.84608 6.52736H7.70788V4.80376ZM9.15396 4.21948C9.95263 4.21948 10.6 4.86691 10.6 5.66556C10.6 6.13686 10.3746 6.5555 10.0256 6.8195C10.3746 7.0835 10.6 7.50214 10.6 7.97344C10.6 8.77208 9.95263 9.41952 9.15396 9.41952C8.83104 9.41952 8.53284 9.31367 8.29216 9.13478V10.2813C8.29216 11.08 7.64472 11.7274 6.84608 11.7274C6.04743 11.7274 5.40001 11.08 5.40001 10.2813C5.40001 9.80999 5.62547 9.39138 5.97442 9.12738C5.62547 8.86337 5.40001 8.44473 5.40001 7.97344C5.40001 7.50214 5.62547 7.0835 5.97443 6.8195C5.62547 6.5555 5.40001 6.13686 5.40001 5.66556C5.40001 4.86691 6.04743 4.21948 6.84608 4.21948H9.15396ZM8.29216 4.80376V6.52736H9.15396C9.62994 6.52736 10.0157 6.14152 10.0157 5.66556C10.0157 5.1896 9.62994 4.80376 9.15396 4.80376H8.29216ZM6.84608 8.83523H7.70788V7.11164H6.84608C6.37012 7.11164 5.98428 7.49748 5.98428 7.97344C5.98428 8.44826 6.36828 8.8334 6.84266 8.83524L6.84608 8.83523ZM5.98428 10.2813C5.98428 9.80648 6.36828 9.42136 6.84266 9.41951L6.84608 9.41952H7.70788V10.2813C7.70788 10.7573 7.32204 11.1431 6.84608 11.1431C6.37012 11.1431 5.98428 10.7573 5.98428 10.2813ZM8.29216 7.97172C8.29309 7.49655 8.67857 7.11164 9.15396 7.11164C9.62994 7.11164 10.0157 7.49748 10.0157 7.97344C10.0157 8.4494 9.62994 8.83524 9.15396 8.83524C8.67857 8.83524 8.29309 8.45033 8.29216 7.97516V7.97172Z" fill="white" style="fill:white;fill-opacity:1;"/>
<path d="M12.2119 5.7882C12.0947 5.67104 11.9052 5.67104 11.7881 5.7882C11.6709 5.90536 11.6709 6.09487 11.7881 6.21203L13.5761 8.00011L11.7881 9.7882C11.6709 9.90536 11.6709 10.0949 11.7881 10.212C11.9052 10.3292 12.0947 10.3292 12.2119 10.212L14.2119 8.21203C14.329 8.09487 14.329 7.90536 14.2119 7.7882L12.2119 5.7882Z" fill="white" style="fill:white;fill-opacity:1;"/>
<path d="M3.78806 5.7882C3.90522 5.67104 4.09473 5.67104 4.21189 5.7882C4.32905 5.90536 4.32905 6.09487 4.21189 6.21203L2.42381 8.00011L4.21189 9.7882C4.32905 9.90536 4.32905 10.0949 4.21189 10.212C4.09473 10.3292 3.90522 10.3292 3.78806 10.212L1.78806 8.21203C1.67091 8.09487 1.67091 7.90536 1.78806 7.7882L3.78806 5.7882Z" fill="white" style="fill:white;fill-opacity:1;"/>
</svg>
