<svg width="320" height="320" viewBox="0 0 320 320" fill="none" xmlns="http://www.w3.org/2000/svg">
<g clip-path="url(#clip0_257_250)">
<path d="M280 0H40C17.9086 0 0 17.9086 0 40V280C0 302.091 17.9086 320 40 320H280C302.091 320 320 302.091 320 280V40C320 17.9086 302.091 0 280 0Z" fill="black" style="fill:black;fill-opacity:1;"/>
<path fill-rule="evenodd" clip-rule="evenodd" d="M109.12 99.8367C114.582 94.7212 123.273 94.721 128.735 99.8367C134.421 105.162 134.421 113.958 128.735 119.284L85.2612 160L128.735 200.716C134.42 206.04 134.421 214.836 128.735 220.161C123.273 225.278 114.581 225.279 109.119 220.162L55.2641 169.723C49.5785 164.398 49.5787 155.602 55.2641 150.276L109.12 99.8367Z" fill="#FFDD04" style="fill:#FFDD04;fill:color(display-p3 1.0000 0.8667 0.0157);fill-opacity:1;"/>
<rect x="159" y="96" width="104" height="32" rx="16" fill="white" style="fill:white;fill-opacity:1;"/>
<rect x="159" y="144" width="70" height="32" rx="16" fill="white" style="fill:white;fill-opacity:1;"/>
<path d="M159 208C159 199.163 166.163 192 175 192H194V206.5C194 216.165 186.165 224 176.5 224H175C166.163 224 159 216.837 159 208V208Z" fill="white" style="fill:white;fill-opacity:1;"/>
</g>
<defs>
<clipPath id="clip0_257_250">
<rect width="320" height="320" fill="white" style="fill:white;fill-opacity:1;"/>
</clipPath>
</defs>
</svg>
